# xmcd CD database file generated by Grip 3.0.5
# 
# Track frame offsets:
#       150
#       23115
#       49856
#       116291
#       164569
#       194399
#       220111
#       251227
# 
# Disc length: 3858 seconds
# 
# Revision: 2
# Processed by: cddbd v1.4PL0 Copyright (c) Steve Scherf et al.
# Submitted via: Grip 3.0.5
# 
DISCID=6e0f1008
DTITLE=Jukka Gustavson Organ Fusion Band - Between Fire And Ice
DYEAR=2003
DGENRE=Progressive Rock
TTITLE0=Liplatusta, kimmellyst‰, putputusta
TTITLE1=Walkin' and Talkin'
TTITLE2=Fraktaali symmetria
TTITLE3=Ai ai ai vapaus on p‰‰ssyt karkuun
TTITLE4=Between fire and ice
TTITLE5=Start and Run
TTITLE6=I'm a bluesman
TTITLE7=Syrj‰‰nnyt
EXTD=
EXTT0=
EXTT1=
EXTT2=
EXTT3=
EXTT4=
EXTT5=
EXTT6=
EXTT7=
PLAYORDER=
